<svg xmlns="http://www.w3.org/2000/svg" width="25" height="25" viewBox="0 0 25 25" xmlns:xlink="http://www.w3.org/1999/xlink">
  <defs>
    <path id="a" d="M2.013875,0.00082278481 C2.0141875,0.00082278481 2.0141875,0.00082278481 2.0145,0.00082278481 C3.68525,0.000886075949 5.0110625,0.229683544 6.4620625,1.93164557 L12.9461875,10.0382911 L8.1339375,10.0382911 C7.0558125,10.0382911 5.805875,9.72164557 4.8059375,7.99575949 L0.024875,0.0316455696 L0.0093125,0.0316455696 C0.7395625,0.0316455696 1.4000625,0.00082278481 2.013875,0.00082278481 Z"/>
    <linearGradient id="b" x1="78.211%" x2="78.211%" y1="26.796%" y2="149.284%">
      <stop stop-color="#4CC7EC" offset="0%"/>
      <stop stop-color="#0D5088" offset="100%"/>
    </linearGradient>
    <linearGradient id="d" x1="49.966%" x2="49.966%" y1="-3.883%" y2="100.105%">
      <stop stop-color="#4CC7EC" offset="0%"/>
      <stop stop-color="#0D5088" offset="100%"/>
    </linearGradient>
    <path id="e" d="M0.8994375,1.3856962 L0.0088125,4.17234177 L3.0868125,9.47651899 C4.0085625,11.0914557 5.4304375,12.5798101 7.9146875,12.5798101 L15.08625,12.5798101 L4.8523125,0.00816455696 L0.8994375,1.3856962 Z"/>
    <linearGradient id="f" x1="83.46%" x2="83.46%" y1="50.255%" y2="172.743%">
      <stop stop-color="#ED3124" offset="0%"/>
      <stop stop-color="#9D1E20" offset="100%"/>
    </linearGradient>
    <linearGradient id="h" x1="-.006%" x2="100.031%" y1="49.962%" y2="49.962%">
      <stop stop-color="#ED3124" offset="0%"/>
      <stop stop-color="#9D1E20" offset="100%"/>
    </linearGradient>
    <path id="i" d="M2.0086875,0.704683544 L0.0400625,3.93468354 L1.0869375,5.77132911 C1.555625,3.72879747 5.0555,2.03468354 6.867875,2.31962025 L5.039875,0.0396835443 L2.0086875,0.704683544 Z"/>
    <linearGradient id="j" x1="83.31%" x2="83.31%" y1="49.836%" y2="172.324%">
      <stop stop-color="#ED3124" offset="0%"/>
      <stop stop-color="#9D1E20" offset="100%"/>
    </linearGradient>
    <linearGradient id="l" x1="169.313%" x2="8.444%" y1="-77.692%" y2="94.434%">
      <stop stop-color="#ED3124" offset="0%"/>
      <stop stop-color="#9D1E20" offset="100%"/>
    </linearGradient>
    <path id="m" d="M5.8189375,0.0363291139 C5.8191875,0.0363291139 5.8190625,0.0363291139 5.819375,0.0363291139 C7.9141875,0.0363291139 10.0625,0.440126582 10.8678125,2.14443038 C7.4616875,1.79607595 2.3681875,2.84107595 2.6338125,7.32189873 L0.2745625,3.26860759 C-0.413,2.01778481 0.212,0.513607595 2.7275,0.24443038 C3.60175,0.150949367 4.703,0.0363291139 5.8189375,0.0363291139 Z"/>
    <linearGradient id="n" x1="82.433%" x2="82.433%" y1="46.719%" y2="169.207%">
      <stop stop-color="#E5E8EE" offset="0%"/>
      <stop stop-color="#94A9B0" offset="100%"/>
    </linearGradient>
    <linearGradient id="p" x1="15.379%" x2="80.66%" y1="47.573%" y2="45.669%">
      <stop stop-color="#E5E8EE" offset="0%"/>
      <stop stop-color="#94A9B0" offset="100%"/>
    </linearGradient>
  </defs>
  <g fill="none" fill-rule="evenodd">
    <mask id="c" fill="white">
      <use xlink:href="#a"/>
    </mask>
    <polygon fill="url(#b)" points="-147.125 38.734 41 38.734 41 -14.177 -147.125 -14.177" mask="url(#c)"/>
    <path fill="url(#d)" d="M2.013875,0.00082278481 C1.4000625,0.00082278481 0.7395625,0.0316455696 0.0093125,0.0316455696 L0.0093125,0.0316455696 L0.024875,0.0316455696 L4.8059375,7.99575949 C5.805875,9.72164557 7.0558125,10.0382911 8.1339375,10.0382911 L8.1339375,10.0382911 L12.9461875,10.0382911 L6.4620625,1.93164557 C5.0110625,0.229683544 3.68525,0.00082278481 2.0145,0.00082278481 L2.0145,0.00082278481 C2.01425,0.00082278481 2.0141875,0.00082278481 2.013875,0.00082278481"/>
    <g transform="translate(9.875 12.405)">
      <mask id="g" fill="white">
        <use xlink:href="#e"/>
      </mask>
      <polygon fill="url(#f)" points="-157 26.329 31.125 26.329 31.125 -26.582 -157 -26.582" mask="url(#g)"/>
    </g>
    <path fill="url(#h)" d="M10.7744375,13.7907595 L9.8838125,16.5774051 L12.9618125,21.8815823 C13.8835625,23.496519 15.3054375,24.9848734 17.7896875,24.9848734 L17.7896875,24.9848734 L24.96125,24.9848734 L14.7273125,12.4132278 L10.7744375,13.7907595 Z"/>
    <g transform="translate(9.563 12.152)">
      <mask id="k" fill="white">
        <use xlink:href="#i"/>
      </mask>
      <polygon fill="url(#j)" points="-156.688 26.582 31.438 26.582 31.438 -26.329 -156.688 -26.329" mask="url(#k)"/>
    </g>
    <path fill="url(#l)" d="M11.5711875,12.8565823 L9.6025625,16.0865823 L10.6494375,17.9232278 C11.118125,15.8806962 14.618,14.1865823 16.430375,14.471519 L16.430375,14.471519 L14.602375,12.1915823 L11.5711875,12.8565823 Z"/>
    <g transform="translate(7.938 10.506)">
      <mask id="o" fill="white">
        <use xlink:href="#m"/>
      </mask>
      <polygon fill="url(#n)" points="-155.063 28.228 33.063 28.228 33.063 -24.684 -155.063 -24.684" mask="url(#o)"/>
    </g>
    <path fill="url(#p)" d="M13.7564375,10.5426582 C12.6405,10.5426582 11.53925,10.6572785 10.665,10.7507595 L10.665,10.7507595 C8.1495,11.0199367 7.5245,12.5241139 8.2120625,13.7749367 L8.2120625,13.7749367 L10.5713125,17.8282278 C10.3056875,13.3474051 15.3991875,12.3024051 18.8053125,12.6507595 L18.8053125,12.6507595 C18,10.9464557 15.8516875,10.5427215 13.756875,10.5426582 L13.756875,10.5426582 C13.7565625,10.5426582 13.756625,10.5426582 13.7564375,10.5426582"/>
  </g>
</svg>
